<?xml version="1.0" encoding="UTF-8"?>
<svg id="Layer_2" data-name="Layer 2" xmlns="http://www.w3.org/2000/svg" viewBox="0 0 704.74 177">
  <defs>
    <style>
      .cls-1 {
        fill: #f1f1f1;
      }
    </style>
  </defs>
  <g id="Layer_1-2" data-name="Layer 1">
    <g>
      <path class="cls-1" d="m78.3.57C40.29,4.82,5.02,39.93.61,77.92c-5.86,50.58,30.96,93.91,79.12,98.65l.02.12h1.33c2.44.2,4.92.31,7.41.31s4.97-.11,7.41-.31h2.92l.05-.3c43.98-5.14,78.11-42.53,78.11-87.89C177,36.26,131.74-5.41,78.3.57ZM21.21,58.78C32.63,32.97,58.46,14.96,88.5,14.96s55.87,18.01,67.29,43.82c2.17,4.9-2.03,10.24-7.32,9.37l-42.74-7.04c-11.41-1.88-23.05-1.88-34.45,0l-42.74,7.04c-5.29.87-9.48-4.47-7.32-9.37Zm-5.28,41.73c-.79-4.8,3.48-8.91,8.27-8.02l20.02,3.71c12.86,2.38,22.93,12.45,25.31,25.31l7.34,39.62c-31.18-4.95-55.82-29.5-60.93-60.62Zm72.56,1.71c-7.57,0-13.71-6.14-13.71-13.71s6.14-13.71,13.71-13.71,13.71,6.14,13.71,13.71c0,7.57-6.14,13.71-13.71,13.71Zm12.94,58.7l6.4-38.87c2.16-13.14,12.33-23.51,25.42-25.93l19.54-3.62c4.78-.88,9.05,3.22,8.27,8.01-5.03,30.69-29.07,54.99-59.63,60.41Z"/>
      <g>
        <g>
          <path class="cls-1" d="m259.24,17.24h23.54v32.39c0,22.78-18.42,29.42-41.24,29.42-22.69-.04-41.28-6.6-41.19-29.42v-7.37h23.54v5.88c-.13,9.93,8.04,11.63,17.65,11.77,9.66-.13,17.83-1.84,17.7-11.77v-30.91Z"/>
          <path class="cls-1" d="m293.38,17.19h29.47l23.54,30.19,23.58-30.19h29.42v60.38h-23.54v-32.21l-23.58,32.21h-11.77l-23.58-32.21v32.21h-23.54V17.19Z"/>
        </g>
        <g>
          <path class="cls-1" d="m254.85,98.84c16.58-.22,28.88,13.7,28.75,30.19.13,16.4-12.17,30.41-28.75,30.19h-53.73v-60.38h53.73Zm-4.4,19.14h-25.79v22.1h25.79c6.11,0,9.57-4.99,9.57-11.05s-3.46-11.05-9.57-11.05Z"/>
          <path class="cls-1" d="m348.73,98.79c12.44-.13,23,10.33,22.82,22.82,0,4.54-1.21,8.67-3.64,12.35-2.38,3.64-5.57,6.42-9.52,8.27l13.16,16.94h-25.07l-11.37-14.73h-21.02v14.73h-23.54v-60.38h58.17Zm-34.63,17.65v10.29h28.71c1.44,0,2.65-.49,3.64-1.48s1.53-2.25,1.53-3.64c0-2.88-2.29-5.17-5.17-5.17h-28.71Z"/>
          <path class="cls-1" d="m402.37,98.75v60.38h-23.54v-60.38h23.54Z"/>
          <path class="cls-1" d="m449.09,140.75l18.42-41.91h26.5l-30.95,60.38h-27.99l-30.91-60.38h26.5l18.42,41.91Z"/>
          <path class="cls-1" d="m519.35,98.75v60.38h-23.54v-60.38h23.54Z"/>
          <path class="cls-1" d="m590.73,98.75h23.58v60.38h-26.5l-32.43-36.88v36.88h-23.54v-60.38h32.39l26.5,31.98v-31.98Z"/>
          <path class="cls-1" d="m663.73,125.97h41.01v34.63h-11.77l-1.17-9.39c-7.01,6.92-17.65,9.39-27.9,9.39-22.73-.09-41.33-6.65-41.24-29.47v-4.4c-.09-22.87,18.51-29.42,41.24-29.47,20.93,0,38.18,5.71,40.83,24.3h-25.02c-1.48-2.02-3.64-3.37-6.42-4.09s-5.93-1.08-9.39-1.08c-9.66.13-17.83,1.93-17.7,11.77v1.48c-.13,9.93,8.04,11.63,17.7,11.77,9.3,0,15.23-.54,18.78-5.12h-18.96v-10.33Z"/>
        </g>
      </g>
    </g>
  </g>
</svg>